# xmcd
#
# Track frame offsets:
#	150
#	12306
#	27618
#	45114
#	70149
#	92089
#	108754
#	125393
#	144174
#	161047
#	179024
#
# Disc length: 2581 seconds
#
# Revision: 0
# Processed by: cddbd v1.4PL0 Copyright (c) Steve Scherf et al.
# Submitted via: dBpowerAMP V4.0
#
DISCID=8a0a130b
DTITLE=Andy Hersey - Companero Blanco
DYEAR=2002
DGENRE=Country
TTITLE0=Horses, Hitches and Rocky Trails
TTITLE1=Bye-Gone Blues
TTITLE2=(Next Time) A Diamond Won't Cut It
TTITLE3=Companero Blanco
TTITLE4=If These Walls Could Talk
TTITLE5=Welcome To The West
TTITLE6=Never Get The Best Of Me
TTITLE7=Losing Gets Easier
TTITLE8=First Time Alone
TTITLE9=One More Way
TTITLE10=Cowboy Attitude
EXTD=
EXTT0=
EXTT1=
EXTT2=
EXTT3=
EXTT4=
EXTT5=
EXTT6=
EXTT7=
EXTT8=
EXTT9=
EXTT10=
PLAYORDER=
